<?xml version="1.0" encoding="utf-8"?>
<svg version="1.1" id="Layer_1" xmlns="http://www.w3.org/2000/svg" xmlns:xlink="http://www.w3.org/1999/xlink" x="0px" y="0px"
	 viewBox="0 0 960 560" style="enable-background:new 0 0 960 560;" xml:space="preserve">
<style type="text/css">
	.st0{fill:#01CBFE;}
	.st1{fill:#01A0C7;}
	.st2{fill:#05070A;}
	.st3{fill:#1D809E;}
	.st4{fill:#FEFEFE;}
	.st5{fill:#040404;}
</style>
<g>
	<g>
		<path class="st0" d="M1018,300c0,179.8,0,359.6,0.1,539.4c0,3.6-0.6,4.7-4.5,4.7C655.3,844,297,844-61.3,844.1
			c-4.2,0-4.8-1-4.8-4.9c0.1-359.5,0.1-718.9,0-1078.4c0-3.9,0.6-4.9,4.8-4.9c358.1,0.1,716.3,0.1,1074.4,0c4.4,0,5,1.1,5,5.2
			C1018-59.3,1018,120.3,1018,300z M718,145c-0.2-0.6-0.5-1.2-0.7-1.9c-13.6-41.8-40.3-72.3-79.5-91.9c-17-8.5-35.1-14.1-53.8-17.8
			c-35.8-7.1-69.9-2.5-102.3,14c-14.4,7.3-27.1,17-39.2,28C429.8,87,418.8,100,409,113.9c-7.2,10.3-13.7,21.2-18.9,32.8
			c-1,2.2-2,2.9-4.6,2.1c-18.7-5.6-37.8-8.1-57.2-6.8c-28.8,1.9-55.9,9.1-79.8,26.1c-15,10.6-27.5,23.8-37.3,39.3
			c-9.5,15-17.3,30.9-22.3,48c-1.1,3.6-2.8,4.5-6.3,4.5c-22.9-0.3-45,3.6-66.3,12.1c-16,6.3-30,15.8-40.8,28.7
			c-12.1,14.5-18.6,32-20.6,50.9c-2,18.9-0.3,37.6,4.1,56c3.2,13.8,8.2,26.9,16,38.8c3,4.6,6.2,9,9.3,13.5c0.1,1.3-0.1,2.7,0.3,3.9
			c7.3,21.1,18.6,39.6,36.4,53.6c19.7,15.5,42.2,24.5,67,24.5c160.3-0.2,320.6,1.3,480.9-0.7c20.2-0.3,40.3-0.2,60.5,0
			c15.8,0.1,31.6,0.2,46.6-6c9.8-4.1,20.2-6.9,29.5-11.8c12.7-6.6,25-14,36.4-22.9c19.5-15.3,33.9-34.3,42.7-57
			c8.1-21,10.6-43,7.6-65.6c-2.4-18.3-7.8-35.5-17.3-51.3c-2.4-4-4.4-8.7-8.6-11.4c-7.4-25.7-21.1-47.5-40.8-65.6
			c-23.3-21.3-50.7-35.4-80.2-45.7c-3.4-6.3-3.7-13.6-6.3-20.2c-3.6-8.7-6.7-17.6-11.1-25.8C725.2,153.2,722.8,148,718,145z"/>
		<path class="st1" d="M866.1,315c4.3,2.8,6.2,7.4,8.6,11.4c9.5,15.8,15,33,17.3,51.3c2.9,22.6,0.5,44.6-7.6,65.6
			c-8.8,22.7-23.2,41.8-42.7,57c-11.4,8.9-23.7,16.3-36.4,22.9c-9.4,4.9-19.7,7.7-29.5,11.8c-15,6.2-30.7,6.2-46.6,6
			c-20.2-0.2-40.3-0.3-60.5,0c-160.3,2-320.6,0.5-480.9,0.7c-24.9,0-47.4-8.9-67-24.5c-17.8-14-29.1-32.5-36.4-53.6
			c-0.4-1.2-0.2-2.6-0.3-3.9c1.1,0.1,1.6,1,2.3,1.7c11.5,12.6,25.2,21.9,41.2,27.8c12.2,4.6,24.8,8.1,37.8,8.1
			c74.3,0,148.6-0.2,222.9-0.3c108.8-0.2,217.6-0.5,326.4-0.3c15,0,29-3.2,42.8-8.1c7.8-2.8,15.4-6,23.1-9c3.5,0.8,6.3,0.1,7.5-3.7
			c1-0.6,1.9-1.3,3-1.8c25.7-13.8,47.2-32.1,62-57.5c7.6-13,12.6-27,15.1-41.8C871.5,354.7,870.9,334.8,866.1,315z"/>
		<path class="st2" d="M866.1,315c4.8,19.8,5.4,39.7,2,59.8c-2.5,14.9-7.6,28.8-15.1,41.8c-14.8,25.5-36.4,43.7-62,57.5
			c-1,0.5-2,1.2-3,1.8c-2.8,0.5-5.3,1.9-7.5,3.7c-7.7,3-15.3,6.2-23.1,9c-13.8,4.9-27.8,8.1-42.8,8.1
			c-108.8-0.2-217.6,0.2-326.4,0.3c-74.3,0.1-148.6,0.3-222.9,0.3c-13.1,0-25.6-3.5-37.8-8.1c-15.9-6-29.7-15.3-41.2-27.8
			c-0.7-0.7-1.1-1.6-2.3-1.7c-3.1-4.5-6.4-8.9-9.3-13.5c-7.8-11.9-12.8-25-16-38.8c-4.3-18.4-6.1-37.1-4.1-56
			c2-18.9,8.5-36.4,20.6-50.9c10.8-13,24.8-22.4,40.8-28.7c21.3-8.4,43.4-12.4,66.3-12.1c3.5,0.1,5.3-0.9,6.3-4.5
			c5-17.1,12.8-33,22.3-48c9.8-15.5,22.3-28.6,37.3-39.3c23.9-16.9,51-24.2,79.8-26.1c19.5-1.3,38.6,1.2,57.2,6.8
			c2.6,0.8,3.6,0,4.6-2.1c5.2-11.6,11.7-22.5,18.9-32.8c9.8-13.9,20.8-26.9,33.5-38.5c12.1-11,24.8-20.7,39.2-28
			c32.4-16.5,66.5-21.1,102.3-14c18.7,3.7,36.7,9.3,53.8,17.8c39.2,19.6,65.9,50.1,79.5,91.9c0.2,0.6,0.5,1.2,0.7,1.9
			c3.9,16.5,6.9,33,6.5,50c-0.1,2,1.2,2.6,2.9,3.4c5.7,2.5,11.8,3.5,17.7,5.3c29.6,10.3,56.9,24.4,80.2,45.7
			C845.1,267.5,858.7,289.2,866.1,315z M444,484.3c0-0.2,0-0.4,0-0.6c93,0,186,0,279,0c2,0,4-0.1,5.9-0.5
			c30.7-7,58.9-19.3,83.7-39.2c50.5-40.5,53.8-106.4,31.7-149c-14.7-28.3-38.1-47.5-65.5-62.4c-19.1-10.4-39.2-18-60.4-23
			c-6.2-1.4-7.9-3.4-7.5-8.6c0.8-9.5,0.1-19-1.1-28.4c-3.8-29.9-14.7-56.8-35.7-78.6c-32.4-33.7-73.5-48.5-119.1-50.7
			c-37.1-1.7-69.4,12-97.4,35.9c-25.6,21.8-44.6,48.7-58.8,79.2c-2.8,5.9-4.9,7.4-9.8,5.5c-22.9-8.6-46.6-10.9-70.7-7.8
			c-24.8,3.1-48.1,10.5-67.8,26.7c-26.5,21.8-42,50.7-51.5,83.1c-1.7,5.9-3.3,7.2-9.6,7c-23.7-0.8-46.9,2.1-68.9,11.3
			c-31.1,13.1-49.6,35.9-52.9,70.1c-1.9,20,0.5,39.5,6.1,58.7c14.1,48.2,55.6,71.2,95.2,71.3C260.7,484.5,352.4,484.3,444,484.3z"/>
		<path class="st1" d="M745.1,203.7c-5.9-1.8-12-2.8-17.7-5.3c-1.7-0.8-3-1.4-2.9-3.4c0.5-17-2.5-33.6-6.5-50
			c4.8,3,7.2,8.2,9.6,12.7c4.4,8.2,7.5,17.2,11.1,25.8C741.4,190.1,741.7,197.4,745.1,203.7z"/>
		<path class="st3" d="M780.5,479.7c2.2-1.9,4.6-3.2,7.5-3.7C786.8,479.8,784,480.5,780.5,479.7z"/>
		<path class="st4" d="M444,484.3c-91.7,0-183.3,0.2-275-0.1c-39.6-0.1-81.1-23.1-95.2-71.3c-5.6-19.2-8-38.7-6.1-58.7
			c3.3-34.2,21.8-57,52.9-70.1c22-9.2,45.2-12.1,68.9-11.3c6.2,0.2,7.8-1.1,9.6-7c9.5-32.4,25-61.2,51.5-83.1
			c19.6-16.2,42.9-23.6,67.8-26.7c24.1-3,47.8-0.7,70.7,7.8c4.9,1.8,7.1,0.4,9.8-5.5c14.2-30.4,33.1-57.3,58.8-79.2
			c28-23.9,60.3-37.6,97.4-35.9c45.7,2.1,86.8,17,119.1,50.7c21,21.9,31.9,48.7,35.7,78.6c1.2,9.4,1.8,18.9,1.1,28.4
			c-0.4,5.3,1.3,7.2,7.5,8.6c21.2,4.9,41.3,12.6,60.4,23c27.4,14.9,50.8,34.1,65.5,62.4c22.1,42.5,18.8,108.5-31.7,149
			c-24.8,19.9-52.9,32.2-83.7,39.2c-1.9,0.4-4,0.5-5.9,0.5c-93,0-186,0-279,0C444,483.9,444,484.1,444,484.3z M424,286.5
			c0-22.8-18-40.5-41.1-40.5c-21.8,0-39.9,18.2-39.9,40.2c0,22.7,17.9,40.8,40.4,40.8C406,327,424,309.1,424,286.5z M609,286.6
			c0-22.5-17.9-40.6-40-40.7c-22.8,0-41,17.8-41,40.1c0,22.8,17.8,40.9,40.2,40.9C590.9,327,609,309.1,609,286.6z"/>
		<path class="st5" d="M424,286.5c0,22.6-18,40.5-40.7,40.5c-22.5,0-40.4-18.1-40.4-40.8c0-22.1,18.1-40.2,39.9-40.2
			C406,246,424,263.7,424,286.5z M410.8,273.3c-1.4-6.3-5.4-11.1-11.3-14c-8.8-4.3-18-4.2-27.3-2c-2.2,0.5-4.2,1.8-5.2,4.3
			c-1.1,2.7-1,5.2,0.8,7.5c2.2,2.8,5.1,3.2,8.5,2.6c8.1-1.3,16.3-2.8,21.3,6.7c1.5,2.8,5,3.3,8.1,2.1
			C408.8,279.4,410.5,277,410.8,273.3z"/>
		<path class="st5" d="M609,286.6c0,22.5-18.1,40.4-40.8,40.4c-22.4,0-40.2-18.2-40.2-40.9c0-22.3,18.2-40.1,41-40.1
			C591.1,246,609,264.2,609,286.6z M595.9,273.3c-1.6-6.2-5.4-11-11.4-14c-8.8-4.3-18-4.2-27.3-2c-2.3,0.5-4.2,1.9-5.2,4.3
			c-1.1,2.7-1,5.2,0.9,7.5c2.3,2.8,5.2,3.1,8.6,2.6c8.1-1.3,16.3-2.8,21.3,6.7c1.5,2.8,4.9,3.3,8.1,2.1
			C593.9,279.3,595.5,276.9,595.9,273.3z"/>
		<path class="st4" d="M410.8,273.3c-0.4,3.6-2,6.1-5.1,7.2c-3.1,1.1-6.6,0.7-8.1-2.1c-5-9.4-13.2-8-21.3-6.7
			c-3.4,0.6-6.3,0.2-8.5-2.6c-1.8-2.3-1.9-4.8-0.8-7.5c1-2.5,2.9-3.7,5.2-4.3c9.3-2.2,18.5-2.4,27.3,2
			C405.5,262.3,409.4,267.1,410.8,273.3z"/>
		<path class="st4" d="M595.9,273.3c-0.4,3.6-2,6-5.1,7.2c-3.1,1.2-6.6,0.7-8.1-2.1c-5-9.5-13.1-8-21.3-6.7
			c-3.4,0.5-6.3,0.2-8.6-2.6c-1.8-2.3-2-4.8-0.9-7.5c1-2.4,2.9-3.8,5.2-4.3c9.3-2.2,18.5-2.3,27.3,2
			C590.5,262.2,594.3,267.1,595.9,273.3z"/>
	</g>
</g>
</svg>
